<svg width="26" height="25" viewBox="0 0 26 25" fill="none" xmlns="http://www.w3.org/2000/svg">
<path fill-rule="evenodd" clip-rule="evenodd" d="M1 0C0.447715 0 0 0.447715 0 1V1.71739C0 2.26968 0.447716 2.71739 1 2.71739H3.8044L4.34787 5.43477H4.34782L4.70496 7.93477L5.7858 15.5007C6.20807 18.4566 8.7396 20.6522 11.7255 20.6522H18.7093C21.6952 20.6522 24.2267 18.4566 24.649 15.5007L25.1086 12.2833C25.625 8.6687 22.8202 5.43477 19.1689 5.43477H7.06527L6.13909 0.803884C6.0456 0.33646 5.63519 0 5.15851 0H4.34783H3.26092H1ZM7.23034 7.93477L8.26068 15.1471C8.507 16.8714 9.98373 18.1522 11.7255 18.1522H18.7093C20.451 18.1522 21.9278 16.8714 22.1741 15.1471L22.6337 11.9297C22.9349 9.82123 21.2988 7.93477 19.1689 7.93477H7.23034ZM11.9565 23.3696C11.9565 24.27 11.2265 25 10.3261 25C9.4256 25 8.69563 24.27 8.69563 23.3696C8.69563 22.4691 9.4256 21.7391 10.3261 21.7391C11.2265 21.7391 11.9565 22.4691 11.9565 23.3696ZM20.1086 25C21.0091 25 21.739 24.27 21.739 23.3696C21.739 22.4691 21.0091 21.7391 20.1086 21.7391C19.2081 21.7391 18.4782 22.4691 18.4782 23.3696C18.4782 24.27 19.2081 25 20.1086 25Z" fill="#444444"/>
</svg>
