<svg width="160" height="25" viewBox="0 0 160 25" fill="none" xmlns="http://www.w3.org/2000/svg">
<g clip-path="url(#clip0_7_243)">
<path d="M72.2159 11.9419C72.992 12.1409 73.7795 12.3039 74.5409 12.5453C76.9116 13.2939 78.6026 14.8124 79.5322 17.1234C80.4423 19.3856 81.3148 21.664 82.2738 24.117H79.5878C77.338 24.117 77.3413 24.117 76.5701 22.0147C75.8969 20.1798 75.2238 18.3466 74.5327 16.5183C74.3324 16.0158 74.1021 15.5256 73.8432 15.0505C72.8694 13.183 71.2961 12.2795 69.2162 12.2322C68.1003 12.2077 66.9844 12.2224 65.8685 12.2126C65.607 12.2126 65.3456 12.1833 65.063 12.1669C65.1283 11.402 65.5041 11.2047 66.156 11.221C67.5709 11.2569 68.9875 11.2422 70.404 11.221C71.8581 11.2014 73.2109 10.8279 74.3448 9.8836C75.7924 8.67833 76.3348 7.11098 75.946 5.28757C75.5571 3.46415 74.3285 2.3812 72.528 1.96857C71.9426 1.83833 71.3452 1.76891 70.7455 1.76144C68.8665 1.73045 66.9876 1.75328 65.112 1.73045C64.4454 1.73045 63.983 2.00445 63.8164 2.62095C63.6538 3.19273 63.5665 3.78321 63.5566 4.37749C63.5381 10.6273 63.5342 16.8793 63.5451 23.1335V24.1121C62.1923 24.1121 60.9196 24.1365 59.6517 24.0811C59.5014 24.0811 59.2531 23.6326 59.2498 23.3896C59.2171 21.2432 59.2318 19.0969 59.2318 16.9505C59.2318 12.6318 59.2318 8.31191 59.2318 3.99095C59.2267 3.50271 59.2678 3.01507 59.3544 2.53451C59.6092 1.22974 60.2105 0.740456 61.5535 0.750242C65.3636 0.760027 69.177 0.688265 72.9822 0.826897C74.6103 0.892395 76.2197 1.19854 77.7579 1.73534C80.3982 2.66009 81.5451 5.1049 80.8034 7.6916C80.3867 9.13989 79.297 9.97494 78.0389 10.6273C76.4606 11.4428 74.7337 11.676 72.9855 11.7886C72.7289 11.8049 72.4724 11.8261 72.2176 11.8456L72.2159 11.9419Z" fill="#702430"/>
<path d="M23.4192 1.99466C23.2787 2.34695 23.179 2.59322 23.0532 2.90637C20.7495 1.60323 18.2987 1.17429 15.7401 1.01446C9.70311 0.639337 6.71483 4.55037 5.65447 8.37496C4.59411 12.1996 4.63985 15.972 6.72626 19.4932C9.23094 23.7223 13.2878 24.753 17.8266 23.2444C19.6859 22.6279 20.3884 21.0279 20.4717 19.2094C20.5665 17.174 20.5322 15.132 20.506 13.0949C20.4962 12.4426 20.6498 12.1588 21.3605 12.1996C22.3098 12.255 23.2656 12.2289 24.2181 12.2077C24.6707 12.1979 24.8472 12.3578 24.8455 12.8193C24.8324 15.5919 24.8602 18.3646 24.8112 21.1372C24.8112 21.4634 24.4844 21.8728 24.1952 22.0864C22.1219 23.6081 19.7267 24.3045 17.2171 24.6405C13.1489 25.1869 9.2244 24.8362 5.62832 22.636C-1.82851 18.0694 -1.88733 7.18763 5.50906 2.47906C9.19172 0.135371 13.224 -0.316403 17.4442 0.1843C19.5303 0.41679 21.5556 1.03046 23.4192 1.99466Z" fill="#702430"/>
<path d="M88.0229 6.07369V23.993C87.3596 24.2279 87.0116 24.1887 87.0132 23.3831C87.0312 16.0747 87.0132 8.76641 87.0279 1.45645C87.0279 0.127221 87.9608 -0.383269 89.1029 0.314781C89.4415 0.535704 89.7511 0.798162 90.0243 1.09601C95.4454 6.63148 100.865 12.1708 106.283 17.7138C106.515 17.9503 106.784 18.1542 107.199 18.5146C107.234 17.983 107.269 17.6747 107.269 17.373C107.269 12.1833 107.269 6.99356 107.269 1.80385C107.269 1.58693 107.211 1.34065 107.296 1.16125C107.341 1.06607 107.407 0.982406 107.49 0.916571C107.572 0.850736 107.668 0.804458 107.771 0.781236C107.874 0.796735 107.972 0.837865 108.055 0.900847C108.138 0.963828 108.204 1.04664 108.247 1.14168C108.327 1.4483 108.279 1.79406 108.279 2.12025C108.279 9.07901 108.276 16.0378 108.271 22.9965C108.271 23.2134 108.271 23.432 108.26 23.6489C108.188 24.4807 107.678 24.8607 106.925 24.5003C106.265 24.1857 105.664 23.7604 105.149 23.2428C99.7244 17.7095 94.3143 12.1642 88.9182 6.60702C88.7009 6.36074 88.4559 6.1585 88.2271 5.94974L88.0229 6.07369Z" fill="#702430"/>
<path d="M54.8738 24.1104C53.1256 24.1104 51.5522 24.1349 49.9821 24.0811C49.7599 24.0729 49.4838 23.7092 49.3465 23.4499C47.7388 20.3967 46.1344 17.3403 44.5757 14.2611C44.2702 13.6593 43.9222 13.4684 43.2572 13.4798C40.8343 13.5206 38.4096 13.5125 35.9883 13.4798C35.4263 13.4798 35.1158 13.6429 34.8593 14.1665C33.3447 17.2359 31.7681 20.2744 30.2699 23.3504C29.9251 24.0582 29.5052 24.2654 28.7324 24.024C28.7949 23.8343 28.8674 23.6481 28.9497 23.4662C32.7696 16.0247 36.5917 8.58317 40.416 1.14167C40.4536 1.06828 40.4928 0.996514 40.532 0.926383C41.2019 -0.260953 41.7672 -0.306619 42.4289 0.88724C44.0382 3.78382 45.5838 6.71791 47.1539 9.63895C49.5818 14.1665 52.0086 18.6946 54.4343 23.2232C54.5699 23.4597 54.6728 23.7027 54.8738 24.1104ZM43.5366 12.467C42.4452 9.77268 40.0484 5.54525 39.3883 5.22884C38.1956 7.60515 37.0029 9.98145 35.753 12.467H43.5366Z" fill="#702430"/>
<path d="M135.1 24.1283H134.283L116.638 24.1185C115.396 24.1185 114.855 23.7027 114.592 22.4876C114.492 22.0102 114.441 21.5238 114.44 21.036C114.428 15.3299 114.428 9.62154 114.44 3.91103C114.436 3.4771 114.471 3.04366 114.545 2.61605C114.821 1.1645 115.336 0.74861 116.819 0.746979C122.453 0.746979 128.087 0.746979 133.721 0.746979H134.646C134.919 1.56246 134.646 1.76143 133.945 1.75817C129.645 1.73534 125.345 1.74512 121.038 1.74349C119.26 1.74349 118.777 2.19037 118.75 3.98768C118.721 5.94483 118.75 7.90197 118.741 9.85912V11.327H131.422V12.3055H118.819C118.786 12.6056 118.744 12.8144 118.744 13.0232C118.744 15.6033 118.744 18.1846 118.744 20.7669C118.747 21.1195 118.785 21.471 118.86 21.8156C119.085 22.866 119.466 23.1628 120.557 23.1644C125.157 23.1644 129.757 23.1601 134.357 23.1514C135.001 23.1302 135.391 23.2476 135.1 24.1283Z" fill="#702430"/>
<path d="M146.309 1.74023H145.184C142.708 1.74023 140.229 1.72718 137.752 1.75164C137.032 1.75164 136.814 1.50048 137.086 0.74045H137.948C144.918 0.74045 151.89 0.74045 158.861 0.756759C159.257 0.756759 159.98 0.401211 160.005 1.22321C160.03 2.04522 159.298 1.72392 158.896 1.72881C156.473 1.7598 154.048 1.76958 151.625 1.72881C150.857 1.7125 150.612 1.90169 150.617 2.70739C150.655 9.47586 150.643 16.2443 150.645 23.0112V24.0485H146.309V1.74023Z" fill="#702430"/>
</g>
<defs>
<clipPath id="clip0_7_243">
<rect width="160" height="24.8705" fill="white"/>
</clipPath>
</defs>
</svg>
