<svg width="19" height="25" viewBox="0 0 19 25" fill="none" xmlns="http://www.w3.org/2000/svg">
<path fill-rule="evenodd" clip-rule="evenodd" d="M13.0172 6.03448C13.0172 7.98652 11.4348 9.56897 9.48276 9.56897C7.53072 9.56897 5.94828 7.98652 5.94828 6.03448C5.94828 4.08244 7.53072 2.5 9.48276 2.5C11.4348 2.5 13.0172 4.08244 13.0172 6.03448ZM13.0702 10.8873C14.5548 9.78802 15.5172 8.02365 15.5172 6.03448C15.5172 2.70173 12.8155 0 9.48276 0C6.15001 0 3.44828 2.70173 3.44828 6.03448C3.44828 8.02365 4.41073 9.78802 5.89535 10.8873C2.43675 11.9804 0 14.6065 0 17.6724C0 21.7193 4.24558 25 9.48276 25C14.7199 25 18.9655 21.7193 18.9655 17.6724C18.9655 14.6065 16.5288 11.9804 13.0702 10.8873ZM16.4655 17.6724C16.4655 19.7774 13.977 22.5 9.48276 22.5C4.98856 22.5 2.5 19.7774 2.5 17.6724C2.5 15.5674 4.98856 12.8448 9.48276 12.8448C13.977 12.8448 16.4655 15.5674 16.4655 17.6724Z" fill="#444444"/>
</svg>
