<svg width="19" height="17" viewBox="0 0 19 17" fill="none" xmlns="http://www.w3.org/2000/svg">
<path fill-rule="evenodd" clip-rule="evenodd" d="M12.7844 12.9729C11.8939 13.834 10.7784 14.4874 9.4971 14.8308C5.47318 15.909 1.3371 13.521 0.258892 9.4971C-0.819312 5.47318 1.56866 1.3371 5.59257 0.258892C9.61649 -0.819312 13.7526 1.56866 14.8308 5.59257C15.3794 7.64 15.0306 9.71647 14.0256 11.4044L17.9447 14.3964C18.3837 14.7316 18.4678 15.3591 18.1327 15.7981C17.7975 16.2371 17.17 16.3212 16.731 15.9861L12.7948 12.981L12.8464 12.9123C12.8463 12.9124 12.8464 12.9122 12.8464 12.9123L12.7948 12.981C12.7915 12.9784 12.7876 12.9755 12.7844 12.9729ZM12.8989 6.11021C13.6912 9.06719 11.9364 12.1066 8.97946 12.8989C6.02247 13.6912 2.98307 11.9364 2.19074 8.97946C1.39842 6.02247 3.15323 2.98306 6.11021 2.19074C9.06719 1.39842 12.1066 3.15323 12.8989 6.11021Z" fill="#444444"/>
</svg>
